<?xml version="1.0" standalone="no"?>
<!DOCTYPE svg PUBLIC "-//W3C//DTD SVG 20010904//EN"
 "http://www.w3.org/TR/2001/REC-SVG-20010904/DTD/svg10.dtd">
<svg version="1.0" xmlns="http://www.w3.org/2000/svg"
 width="260.000000pt" height="260.000000pt" viewBox="0 0 260.000000 260.000000"
 preserveAspectRatio="xMidYMid meet">
<metadata>
Created by potrace 1.11, written by Peter Selinger 2001-2013
</metadata>
<g transform="translate(0.000000,260.000000) scale(0.100000,-0.100000)"
fill="#000000" stroke="none">
<path d="M1476 2463 c-3 -4 -43 -7 -89 -8 -55 -1 -101 -9 -142 -23 -33 -12
-80 -26 -104 -32 -27 -7 -60 -27 -90 -54 -25 -24 -59 -46 -76 -50 -40 -9 -209
-73 -249 -93 -104 -53 -223 -152 -277 -230 -17 -24 -37 -43 -45 -43 -21 0 -62
-46 -90 -102 -55 -109 -65 -227 -38 -457 17 -151 43 -234 81 -258 25 -17 26
-17 54 17 16 19 29 29 29 23 0 -6 2 -18 5 -25 4 -9 -7 -19 -31 -28 -19 -8 -39
-21 -44 -30 -14 -26 60 -189 106 -235 15 -15 18 -15 35 0 16 16 20 16 51 -1
18 -11 40 -25 50 -32 12 -10 25 -11 55 -3 32 9 40 8 51 -6 6 -9 12 -20 12 -25
0 -12 33 -10 78 6 36 13 41 13 46 -1 9 -24 7 -33 -8 -33 -8 0 -35 -23 -60 -51
-34 -38 -47 -47 -52 -36 -7 20 -62 29 -125 21 -92 -12 -164 -103 -114 -144 22
-19 18 -37 -12 -57 -16 -10 -31 -22 -35 -28 -11 -15 -9 -60 3 -72 8 -8 6 -18
-6 -36 -13 -20 -14 -30 -6 -46 17 -30 14 -36 -24 -50 -19 -7 -88 -51 -152 -98
-65 -47 -122 -87 -128 -89 -12 -5 -69 105 -79 153 -4 18 -12 33 -17 33 -12 0
-11 -3 6 -77 8 -34 23 -77 34 -97 l20 -35 -21 -15 c-19 -14 44 -15 598 -16
608 0 620 0 674 21 35 14 87 23 145 26 79 5 100 2 168 -21 l77 -26 430 0 430
0 0 218 c0 201 -2 223 -24 292 -13 41 -29 76 -36 78 -8 3 -10 -2 -6 -14 43
-140 60 -294 32 -294 -22 0 -46 11 -46 21 0 5 -13 30 -29 56 -16 27 -46 94
-66 151 -21 56 -42 102 -47 102 -4 0 -8 -1 -8 -2 3 -17 39 -158 45 -173 5 -11
-36 23 -91 75 -115 110 -139 121 -322 147 -118 17 -138 28 -110 61 20 22 38
78 38 113 0 37 -12 37 -27 1 -24 -56 -71 -127 -83 -124 -6 1 -9 -2 -6 -7 3 -5
-2 -26 -11 -47 l-17 -39 -9 54 c-6 34 -5 68 2 94 11 46 -1 73 -28 61 -47 -19
-139 -34 -180 -29 -25 4 -64 2 -86 -3 -33 -8 -21 -10 77 -11 64 -1 128 3 142
9 33 12 41 -2 21 -39 -10 -21 -20 -28 -31 -24 -9 3 -19 1 -23 -6 -4 -7 -19
-13 -32 -15 -14 -1 -31 -6 -38 -10 -7 -5 -17 -1 -25 9 -11 15 -13 15 -25 1
-11 -13 -17 -14 -28 -5 -7 7 -16 9 -20 6 -3 -4 -15 -1 -27 5 -11 7 -29 11 -39
9 -10 -1 -25 3 -33 9 -8 7 -14 9 -14 4 0 -20 16 -32 40 -32 14 0 43 -5 65 -11
22 -6 59 -11 83 -11 29 0 42 -4 42 -14 0 -8 9 -24 21 -37 l21 -24 -6 22 c-3
13 -9 31 -12 41 -8 26 67 45 96 25 17 -12 20 -25 20 -93 0 -98 -10 -126 -47
-133 -15 -3 -32 -1 -38 4 -15 15 -25 10 -25 -11 0 -11 -4 -20 -9 -20 -5 0 -12
-12 -16 -27 -3 -16 -16 -35 -27 -44 -21 -16 -21 -16 4 -22 14 -4 28 -16 31
-27 3 -11 11 -20 17 -20 8 0 10 8 5 22 -12 40 -5 102 12 116 24 17 61 15 72
-5 10 -20 -14 -93 -31 -93 -5 0 -7 -4 -3 -9 3 -5 1 -12 -5 -16 -6 -4 -8 -11
-4 -16 11 -18 -5 -59 -20 -53 -10 4 -16 -3 -18 -18 -4 -29 -38 -38 -38 -10 0
11 -8 26 -17 33 -16 12 -17 12 -7 -1 7 -9 8 -23 3 -35 -4 -11 -8 -15 -8 -8 -1
9 -8 9 -28 -1 -92 -46 -120 -50 -185 -26 -35 13 -44 28 -39 62 3 20 -21 58
-36 58 -15 0 -16 -2 -3 -10 13 -9 13 -11 0 -20 -13 -9 -13 -12 3 -21 18 -10
24 -39 8 -39 -16 0 -212 214 -207 227 3 7 2 12 -2 10 -18 -5 -152 137 -152
162 0 6 -4 11 -8 11 -16 0 -29 45 -21 72 5 19 3 30 -5 35 -24 15 -27 47 -15
192 10 135 9 153 -10 245 -25 118 -26 184 -5 255 8 29 13 55 10 58 -2 3 2 26
9 51 12 41 12 45 0 28 -14 -19 -15 -18 -15 12 0 19 -8 40 -20 52 -18 18 -19
26 -10 58 12 45 12 52 1 52 -5 0 -14 -13 -20 -30 -12 -37 -30 -40 -23 -4 3 18
1 25 -6 20 -7 -4 -6 5 2 26 24 58 28 78 16 78 -6 0 -15 -10 -20 -22 -7 -19 -9
-20 -9 -5 -1 25 18 59 29 52 5 -3 14 3 20 14 6 11 6 22 1 25 -5 3 -12 -1 -15
-10 -3 -8 -11 -12 -16 -9 -8 5 -6 15 4 31 9 13 16 30 16 38 0 23 25 65 54 87
14 11 26 27 26 34 0 11 9 13 33 10 17 -3 26 -3 20 1 -7 3 -13 13 -13 21 0 13
3 13 15 3 13 -11 21 -7 50 23 19 20 35 42 35 49 1 8 5 7 14 -5 8 -10 20 -15
30 -11 11 4 16 1 16 -13 0 -11 7 -28 15 -39 14 -18 14 -18 16 6 1 18 3 20 6 7
6 -24 53 -43 64 -25 7 10 11 10 21 0 17 -17 28 -15 28 6 1 15 2 15 15 -2 15
-19 15 -19 15 3 0 31 16 18 23 -19 4 -16 10 -30 15 -30 5 0 7 11 4 25 -2 15 0
25 7 25 6 0 11 -7 11 -15 0 -8 4 -15 10 -15 5 0 25 -14 44 -30 30 -27 35 -28
39 -13 3 10 5 3 6 -14 0 -18 4 -33 7 -33 14 0 44 22 44 33 0 7 7 21 16 32 13
17 16 18 24 5 7 -11 10 -2 10 30 l1 45 28 -60 27 -60 8 45 c5 33 9 41 16 30 5
-8 10 -10 11 -5 0 6 5 -3 10 -20 5 -18 5 -33 -1 -39 -12 -12 -13 -36 -1 -36 5
0 11 9 14 20 5 21 31 27 42 10 3 -6 16 -8 29 -4 24 6 57 -21 104 -81 30 -40
39 -75 57 -238 10 -93 21 -150 35 -177 11 -21 20 -48 20 -60 0 -18 -6 -20 -70
-20 -64 0 -73 -3 -101 -29 -37 -35 -26 -44 38 -32 85 17 123 20 128 11 3 -5 1
-28 -4 -52 -8 -33 -7 -48 4 -64 21 -33 38 -136 33 -208 -4 -71 -1 -76 47 -67
20 4 32 14 37 31 3 14 24 81 46 150 22 69 45 154 52 190 12 65 46 181 101 339
27 76 59 234 59 288 0 33 -32 46 -79 33 -38 -10 -40 -13 -52 -66 -11 -47 -10
-57 2 -65 11 -7 10 -11 -8 -24 -30 -21 -29 -33 3 -45 21 -8 25 -15 20 -38 -3
-15 -8 -47 -12 -72 -8 -57 -84 -294 -91 -286 -3 3 0 49 7 103 14 111 5 182
-32 243 -17 28 -21 52 -22 125 -1 90 -1 90 -58 198 -32 59 -58 113 -58 119 0
6 -7 20 -17 30 -24 27 -10 32 20 7 30 -23 38 -11 10 13 -10 8 -52 38 -93 65
-75 51 -115 67 -181 77 -48 7 -64 13 -130 47 -59 30 -71 33 -83 22z m264 -251
c0 -4 14 -13 30 -20 17 -8 37 -27 45 -42 23 -44 18 -44 -21 0 -20 22 -43 40
-50 40 -8 0 -14 4 -14 9 0 5 -10 12 -22 14 -20 4 -19 4 5 6 15 0 27 -2 27 -7z
m-127 -37 c-3 -9 -8 -14 -10 -11 -3 3 -2 9 2 15 9 16 15 13 8 -4z m287 -115
c-1 -24 -1 -24 -14 6 -7 17 -17 41 -20 55 -7 21 -5 21 13 -6 12 -16 21 -41 21
-55z m-1060 10 c8 -5 11 -10 5 -10 -5 0 -17 5 -25 10 -8 5 -10 10 -5 10 6 0
17 -5 25 -10z m-30 -30 c0 -6 -12 -15 -27 -21 -16 -6 -39 -20 -52 -32 l-24
-22 19 27 c10 14 33 33 49 42 37 18 35 18 35 6z m-270 -251 c0 -11 -4 -17 -10
-14 -5 3 -10 13 -10 21 0 8 5 14 10 14 6 0 10 -9 10 -21z m-153 -61 c-3 -7 -5
-2 -5 12 0 14 2 19 5 13 2 -7 2 -19 0 -25z m483 -152 c0 -3 -4 -8 -10 -11 -5
-3 -10 -1 -10 4 0 6 5 11 10 11 6 0 10 -2 10 -4z m-350 -617 c0 -6 -4 -7 -10
-4 -5 3 -10 11 -10 16 0 6 5 7 10 4 6 -3 10 -11 10 -16z m441 -401 c10 -13 18
-27 19 -32 0 -4 31 -38 69 -75 37 -36 101 -101 142 -145 l74 -78 -35 7 c-83
17 -176 82 -231 161 -22 32 -37 44 -55 44 -19 0 -28 8 -39 33 -7 17 -16 31
-19 30 -3 -2 -7 0 -8 3 -1 8 51 74 58 74 3 0 14 -10 25 -22z m-484 -170 c-3
-8 -6 -5 -6 6 -1 11 2 17 5 13 3 -3 4 -12 1 -19z m426 -103 c23 -9 38 -24 45
-45 13 -37 2 -39 -48 -9 -41 25 -50 37 -43 56 6 16 3 16 46 -2z"/>
<path d="M1279 1400 c-55 -9 -132 -47 -124 -60 4 -6 0 -10 -7 -10 -8 0 -6 -5
5 -11 14 -8 27 -7 52 5 18 9 42 16 53 16 12 0 24 5 27 11 5 6 39 9 96 6 88 -4
96 -2 81 19 -21 33 -83 41 -183 24z"/>
<path d="M1585 1350 c-20 -13 -25 -20 -13 -20 15 0 48 25 48 36 0 6 -3 5 -35
-16z"/>
<path d="M1538 1288 c8 -8 17 -8 34 0 22 10 21 11 -11 11 -27 1 -32 -2 -23
-11z"/>
<path d="M1750 1283 c0 -11 97 -43 132 -43 14 0 31 6 37 14 9 11 3 14 -36 19
-27 3 -67 9 -90 13 -25 4 -43 3 -43 -3z"/>
<path d="M1360 1264 c-36 -7 -89 -19 -118 -25 -49 -12 -55 -11 -83 10 -24 18
-33 20 -45 10 -34 -28 57 -59 113 -38 15 5 29 6 30 2 5 -14 137 8 163 27 33
25 15 29 -60 14z"/>
<path d="M1516 1256 c4 -12 73 -31 81 -23 1 2 -18 10 -42 19 -33 13 -43 14
-39 4z"/>
<path d="M1588 1263 c6 -2 18 -2 25 0 6 3 1 5 -13 5 -14 0 -19 -2 -12 -5z"/>
<path d="M1781 1224 c9 -8 36 -17 60 -20 46 -4 42 -1 -31 22 -41 13 -43 13
-29 -2z"/>
<path d="M1421 1209 c-13 -10 -43 -24 -67 -30 -24 -6 -44 -15 -44 -19 0 -16
105 20 129 45 30 30 17 33 -18 4z"/>
<path d="M1745 1200 c4 -8 28 -46 53 -83 43 -66 44 -70 33 -106 -20 -69 -50
-82 -143 -67 -70 12 -60 -8 10 -21 45 -9 63 -8 87 3 60 28 83 111 47 166 -36
55 -103 138 -87 108z"/>
<path d="M1164 1174 c2 -6 -9 -19 -25 -28 -25 -15 -39 -36 -25 -36 12 0 120
70 111 72 -37 5 -65 2 -61 -8z"/>
<path d="M1351 870 l-71 -81 0 -77 c1 -100 17 -223 31 -236 9 -8 10 -4 5 14
-12 41 -25 161 -26 227 l0 62 70 81 c39 45 70 83 70 86 0 11 -13 -2 -79 -76z"/>
<path d="M1780 901 c0 -6 -7 -8 -15 -5 -20 8 -19 -10 1 -27 13 -10 17 -10 25
2 11 18 11 26 -1 34 -5 3 -10 2 -10 -4z"/>
<path d="M1843 832 c-6 -37 -14 -75 -18 -84 -4 -10 -3 -18 2 -18 10 0 43 106
43 139 0 47 -17 24 -27 -37z"/>
<path d="M1500 860 c0 -5 5 -10 10 -10 6 0 10 5 10 10 0 6 -4 10 -10 10 -5 0
-10 -4 -10 -10z"/>
<path d="M1445 850 c-3 -5 -1 -10 4 -10 6 0 11 5 11 10 0 6 -2 10 -4 10 -3 0
-8 -4 -11 -10z"/>
<path d="M1400 830 c0 -5 4 -10 9 -10 6 0 13 5 16 10 3 6 -1 10 -9 10 -9 0
-16 -4 -16 -10z"/>
<path d="M927 783 c-10 -16 11 -65 25 -61 6 2 14 10 16 18 3 7 0 10 -6 6 -6
-3 -14 6 -19 21 -6 16 -12 22 -16 16z"/>
<path d="M1418 773 c7 -3 16 -2 19 1 4 3 -2 6 -13 5 -11 0 -14 -3 -6 -6z"/>
<path d="M1343 746 c-29 -14 -29 -15 3 -84 61 -134 76 -162 84 -157 4 3 26
-13 48 -35 22 -22 48 -40 58 -40 14 0 9 8 -19 31 -20 17 -50 49 -65 72 -39 59
-83 177 -76 205 7 24 1 25 -33 8z"/>
<path d="M1010 735 c0 -8 5 -15 10 -15 6 0 10 7 10 15 0 8 -4 15 -10 15 -5 0
-10 -7 -10 -15z"/>
<path d="M977 733 c-11 -10 -8 -43 3 -43 6 0 10 4 10 9 0 5 3 16 6 25 6 16 -7
22 -19 9z"/>
<path d="M1140 590 c0 -5 5 -10 10 -10 6 0 10 5 10 10 0 6 -4 10 -10 10 -5 0
-10 -4 -10 -10z"/>
<path d="M1647 574 c-24 -33 -15 -56 19 -52 35 4 53 31 38 56 -17 26 -37 25
-57 -4z"/>
<path d="M1076 555 c-11 -8 -14 -15 -8 -15 7 0 12 -10 10 -22 -2 -13 2 -23 7
-23 6 0 10 17 11 38 1 20 1 37 0 37 -1 0 -10 -7 -20 -15z"/>
<path d="M1197 444 c-3 -4 -2 -15 3 -25 6 -9 7 -25 3 -35 -5 -14 -2 -16 15
-12 15 4 19 2 15 -8 -6 -16 13 -19 22 -4 4 7 13 7 25 0 16 -8 18 -8 14 5 -4 8
-12 15 -20 15 -8 0 -14 10 -14 25 0 17 -5 25 -18 25 -10 0 -23 5 -28 10 -6 6
-13 7 -17 4z"/>
<path d="M1360 240 c0 -5 5 -10 10 -10 6 0 10 5 10 10 0 6 -4 10 -10 10 -5 0
-10 -4 -10 -10z"/>
<path d="M1390 229 c0 -5 5 -7 10 -4 6 3 10 8 10 11 0 2 -4 4 -10 4 -5 0 -10
-5 -10 -11z"/>
<path d="M1440 196 c0 -2 7 -6 15 -10 8 -3 15 -1 15 4 0 6 -7 10 -15 10 -8 0
-15 -2 -15 -4z"/>
<path d="M1380 16 c-53 -13 -48 -14 115 -15 135 0 166 2 150 11 -29 17 -200
19 -265 4z"/>
</g>
</svg>
